<mxfile host="app.diagrams.net" modified="2021-02-25T06:46:13.081Z" agent="5.0 (Windows NT 10.0; Win64; x64) AppleWebKit/537.36 (KHTML, like Gecko) Chrome/88.0.4324.182 Safari/537.36" etag="LijIyDDw1VzZBVwXmrOQ" version="14.4.2" type="github" pages="5">
  <diagram id="Nr7kA8KgLECe_Qx6fv5V" name="Page-1">
    <mxGraphModel dx="652" dy="317" grid="1" gridSize="10" guides="1" tooltips="1" connect="1" arrows="1" fold="1" page="1" pageScale="1" pageWidth="850" pageHeight="1100" math="0" shadow="0">
      <root>
        <mxCell id="0" />
        <mxCell id="1" parent="0" />
        <mxCell id="UaU48V7KgegWGKRfcp_4-1" value="" style="rounded=0;whiteSpace=wrap;html=1;shadow=0;" vertex="1" parent="1">
          <mxGeometry x="340" y="160" width="120" height="170" as="geometry" />
        </mxCell>
        <mxCell id="UaU48V7KgegWGKRfcp_4-19" value="" style="verticalLabelPosition=bottom;verticalAlign=top;html=1;shape=mxgraph.basic.patternFillRect;fillStyle=diag;step=5;fillStrokeWidth=0.2;fillStrokeColor=#dddddd;shadow=0;labelBackgroundColor=none;sketch=0;gradientColor=none;" vertex="1" parent="1">
          <mxGeometry x="340" y="250" width="120" height="80" as="geometry" />
        </mxCell>
        <mxCell id="UaU48V7KgegWGKRfcp_4-6" value="RAM" style="text;html=1;resizable=0;autosize=1;align=center;verticalAlign=middle;points=[];fillColor=none;strokeColor=none;rounded=0;" vertex="1" parent="1">
          <mxGeometry x="380" y="340" width="40" height="20" as="geometry" />
        </mxCell>
        <mxCell id="UaU48V7KgegWGKRfcp_4-20" value="" style="rounded=0;whiteSpace=wrap;html=1;shadow=0;" vertex="1" parent="1">
          <mxGeometry x="490" y="160" width="120" height="170" as="geometry" />
        </mxCell>
        <mxCell id="UaU48V7KgegWGKRfcp_4-21" value="" style="verticalLabelPosition=bottom;verticalAlign=top;html=1;shape=mxgraph.basic.patternFillRect;fillStyle=diag;step=5;fillStrokeWidth=0.2;fillStrokeColor=#dddddd;shadow=0;labelBackgroundColor=none;sketch=0;gradientColor=none;" vertex="1" parent="1">
          <mxGeometry x="490" y="210" width="120" height="30" as="geometry" />
        </mxCell>
        <mxCell id="UaU48V7KgegWGKRfcp_4-22" value="RAM" style="text;html=1;resizable=0;autosize=1;align=center;verticalAlign=middle;points=[];fillColor=none;strokeColor=none;rounded=0;" vertex="1" parent="1">
          <mxGeometry x="530" y="340" width="40" height="20" as="geometry" />
        </mxCell>
        <mxCell id="UaU48V7KgegWGKRfcp_4-24" value="" style="verticalLabelPosition=bottom;verticalAlign=top;html=1;shape=mxgraph.basic.patternFillRect;fillStyle=diag;step=5;fillStrokeWidth=0.2;fillStrokeColor=#dddddd;shadow=0;labelBackgroundColor=none;sketch=0;gradientColor=none;" vertex="1" parent="1">
          <mxGeometry x="490" y="250" width="120" height="40" as="geometry" />
        </mxCell>
        <mxCell id="UaU48V7KgegWGKRfcp_4-25" value="" style="verticalLabelPosition=bottom;verticalAlign=top;html=1;shape=mxgraph.basic.patternFillRect;fillStyle=diag;step=5;fillStrokeWidth=0.2;fillStrokeColor=#dddddd;shadow=0;labelBackgroundColor=none;sketch=0;gradientColor=none;" vertex="1" parent="1">
          <mxGeometry x="490" y="310" width="120" height="20" as="geometry" />
        </mxCell>
        <mxCell id="UaU48V7KgegWGKRfcp_4-26" value="" style="verticalLabelPosition=bottom;verticalAlign=top;html=1;shape=mxgraph.basic.patternFillRect;fillStyle=diag;step=5;fillStrokeWidth=0.2;fillStrokeColor=#dddddd;shadow=0;labelBackgroundColor=none;sketch=0;gradientColor=none;" vertex="1" parent="1">
          <mxGeometry x="430" y="130" width="20" height="20" as="geometry" />
        </mxCell>
        <mxCell id="UaU48V7KgegWGKRfcp_4-30" value="&lt;font style=&quot;font-size: 10px&quot;&gt;Static Memory Pool&lt;/font&gt;" style="text;html=1;resizable=0;autosize=1;align=center;verticalAlign=middle;points=[];fillColor=none;strokeColor=none;rounded=0;shadow=0;labelBackgroundColor=none;sketch=0;" vertex="1" parent="1">
          <mxGeometry x="450" y="130" width="100" height="20" as="geometry" />
        </mxCell>
      </root>
    </mxGraphModel>
  </diagram>
  <diagram id="WNDIuabD1MbYSu3_3c8E" name="Page-2">
    <mxGraphModel dx="372" dy="181" grid="1" gridSize="10" guides="1" tooltips="1" connect="1" arrows="1" fold="1" page="1" pageScale="1" pageWidth="850" pageHeight="1100" math="0" shadow="0">
      <root>
        <mxCell id="mUTu__eR83TACFGP-ZF0-0" />
        <mxCell id="mUTu__eR83TACFGP-ZF0-1" parent="mUTu__eR83TACFGP-ZF0-0" />
        <mxCell id="veDQz-YXpLXgy3ose9fv-3" value="" style="rounded=0;whiteSpace=wrap;html=1;shadow=0;" vertex="1" parent="mUTu__eR83TACFGP-ZF0-1">
          <mxGeometry x="240" y="110" width="120" height="170" as="geometry" />
        </mxCell>
        <mxCell id="veDQz-YXpLXgy3ose9fv-4" value="" style="verticalLabelPosition=bottom;verticalAlign=top;html=1;shape=mxgraph.basic.patternFillRect;fillStyle=diag;step=5;fillStrokeWidth=0.2;fillStrokeColor=#dddddd;shadow=0;labelBackgroundColor=none;sketch=0;gradientColor=none;" vertex="1" parent="mUTu__eR83TACFGP-ZF0-1">
          <mxGeometry x="240" y="160" width="120" height="30" as="geometry" />
        </mxCell>
        <mxCell id="veDQz-YXpLXgy3ose9fv-5" value="RAM" style="text;html=1;resizable=0;autosize=1;align=center;verticalAlign=middle;points=[];fillColor=none;strokeColor=none;rounded=0;" vertex="1" parent="mUTu__eR83TACFGP-ZF0-1">
          <mxGeometry x="280" y="290" width="40" height="20" as="geometry" />
        </mxCell>
        <mxCell id="veDQz-YXpLXgy3ose9fv-6" value="" style="verticalLabelPosition=bottom;verticalAlign=top;html=1;shape=mxgraph.basic.patternFillRect;fillStyle=diag;step=5;fillStrokeWidth=0.2;fillStrokeColor=#dddddd;shadow=0;labelBackgroundColor=none;sketch=0;gradientColor=none;" vertex="1" parent="mUTu__eR83TACFGP-ZF0-1">
          <mxGeometry x="240" y="200" width="120" height="40" as="geometry" />
        </mxCell>
        <mxCell id="veDQz-YXpLXgy3ose9fv-7" value="" style="verticalLabelPosition=bottom;verticalAlign=top;html=1;shape=mxgraph.basic.patternFillRect;fillStyle=diag;step=5;fillStrokeWidth=0.2;fillStrokeColor=#dddddd;shadow=0;labelBackgroundColor=none;sketch=0;gradientColor=none;" vertex="1" parent="mUTu__eR83TACFGP-ZF0-1">
          <mxGeometry x="240" y="260" width="120" height="20" as="geometry" />
        </mxCell>
        <mxCell id="veDQz-YXpLXgy3ose9fv-8" value="" style="verticalLabelPosition=bottom;verticalAlign=top;html=1;shape=mxgraph.basic.patternFillRect;fillStyle=diag;step=5;fillStrokeWidth=0.2;fillStrokeColor=#dddddd;shadow=0;labelBackgroundColor=none;sketch=0;gradientColor=none;" vertex="1" parent="mUTu__eR83TACFGP-ZF0-1">
          <mxGeometry x="240" y="310" width="20" height="20" as="geometry" />
        </mxCell>
        <mxCell id="veDQz-YXpLXgy3ose9fv-9" value="&lt;font style=&quot;font-size: 10px&quot;&gt;Static Memory Pool&lt;/font&gt;" style="text;html=1;resizable=0;autosize=1;align=center;verticalAlign=middle;points=[];fillColor=none;strokeColor=none;rounded=0;shadow=0;labelBackgroundColor=none;sketch=0;" vertex="1" parent="mUTu__eR83TACFGP-ZF0-1">
          <mxGeometry x="260" y="310" width="100" height="20" as="geometry" />
        </mxCell>
        <mxCell id="veDQz-YXpLXgy3ose9fv-11" value="&lt;span style=&quot;font-size: 10px&quot;&gt;20000000&lt;/span&gt;" style="text;html=1;resizable=0;autosize=1;align=center;verticalAlign=middle;points=[];fillColor=none;strokeColor=none;rounded=0;shadow=0;labelBackgroundColor=none;sketch=0;" vertex="1" parent="mUTu__eR83TACFGP-ZF0-1">
          <mxGeometry x="180" y="250" width="60" height="20" as="geometry" />
        </mxCell>
        <mxCell id="veDQz-YXpLXgy3ose9fv-12" value="&lt;span style=&quot;font-size: 10px&quot;&gt;00000000&lt;/span&gt;" style="text;html=1;resizable=0;autosize=1;align=center;verticalAlign=middle;points=[];fillColor=none;strokeColor=none;rounded=0;shadow=0;labelBackgroundColor=none;sketch=0;" vertex="1" parent="mUTu__eR83TACFGP-ZF0-1">
          <mxGeometry x="180" y="270" width="60" height="20" as="geometry" />
        </mxCell>
        <mxCell id="veDQz-YXpLXgy3ose9fv-13" value="&lt;span style=&quot;font-size: 10px&quot;&gt;40000000&lt;/span&gt;" style="text;html=1;resizable=0;autosize=1;align=center;verticalAlign=middle;points=[];fillColor=none;strokeColor=none;rounded=0;shadow=0;labelBackgroundColor=none;sketch=0;" vertex="1" parent="mUTu__eR83TACFGP-ZF0-1">
          <mxGeometry x="180" y="230" width="60" height="20" as="geometry" />
        </mxCell>
        <mxCell id="veDQz-YXpLXgy3ose9fv-14" value="&lt;span style=&quot;font-size: 10px&quot;&gt;80000000&lt;/span&gt;" style="text;html=1;resizable=0;autosize=1;align=center;verticalAlign=middle;points=[];fillColor=none;strokeColor=none;rounded=0;shadow=0;labelBackgroundColor=none;sketch=0;" vertex="1" parent="mUTu__eR83TACFGP-ZF0-1">
          <mxGeometry x="180" y="190" width="60" height="20" as="geometry" />
        </mxCell>
        <mxCell id="veDQz-YXpLXgy3ose9fv-15" value="&lt;span style=&quot;font-size: 10px&quot;&gt;90000000&lt;/span&gt;" style="text;html=1;resizable=0;autosize=1;align=center;verticalAlign=middle;points=[];fillColor=none;strokeColor=none;rounded=0;shadow=0;labelBackgroundColor=none;sketch=0;" vertex="1" parent="mUTu__eR83TACFGP-ZF0-1">
          <mxGeometry x="180" y="180" width="60" height="20" as="geometry" />
        </mxCell>
        <mxCell id="veDQz-YXpLXgy3ose9fv-16" value="&lt;span style=&quot;font-size: 10px&quot;&gt;C0000000&lt;/span&gt;" style="text;html=1;resizable=0;autosize=1;align=center;verticalAlign=middle;points=[];fillColor=none;strokeColor=none;rounded=0;shadow=0;labelBackgroundColor=none;sketch=0;" vertex="1" parent="mUTu__eR83TACFGP-ZF0-1">
          <mxGeometry x="180" y="150" width="60" height="20" as="geometry" />
        </mxCell>
        <mxCell id="veDQz-YXpLXgy3ose9fv-17" value="&lt;span style=&quot;font-size: 10px&quot;&gt;F0000000&lt;/span&gt;" style="text;html=1;resizable=0;autosize=1;align=center;verticalAlign=middle;points=[];fillColor=none;strokeColor=none;rounded=0;shadow=0;labelBackgroundColor=none;sketch=0;" vertex="1" parent="mUTu__eR83TACFGP-ZF0-1">
          <mxGeometry x="180" y="100" width="60" height="20" as="geometry" />
        </mxCell>
        <mxCell id="veDQz-YXpLXgy3ose9fv-19" value="" style="html=1;shadow=0;dashed=0;align=center;verticalAlign=middle;shape=mxgraph.arrows2.arrow;dy=0.6;dx=40;notch=0;labelBackgroundColor=none;sketch=0;gradientColor=none;" vertex="1" parent="mUTu__eR83TACFGP-ZF0-1">
          <mxGeometry x="370" y="170" width="70" height="40" as="geometry" />
        </mxCell>
        <mxCell id="veDQz-YXpLXgy3ose9fv-21" value="" style="verticalLabelPosition=bottom;verticalAlign=top;html=1;shape=mxgraph.basic.patternFillRect;fillStyle=diag;step=5;fillStrokeWidth=0.2;fillStrokeColor=#dddddd;shadow=0;labelBackgroundColor=none;sketch=0;gradientColor=none;" vertex="1" parent="mUTu__eR83TACFGP-ZF0-1">
          <mxGeometry x="500" y="225" width="120" height="20" as="geometry" />
        </mxCell>
        <mxCell id="veDQz-YXpLXgy3ose9fv-22" value="" style="verticalLabelPosition=bottom;verticalAlign=top;html=1;shape=mxgraph.basic.patternFillRect;fillStyle=diag;step=5;fillStrokeWidth=0.2;fillStrokeColor=#dddddd;shadow=0;labelBackgroundColor=none;sketch=0;gradientColor=none;" vertex="1" parent="mUTu__eR83TACFGP-ZF0-1">
          <mxGeometry x="500" y="175" width="120" height="40" as="geometry" />
        </mxCell>
        <mxCell id="veDQz-YXpLXgy3ose9fv-23" value="" style="verticalLabelPosition=bottom;verticalAlign=top;html=1;shape=mxgraph.basic.patternFillRect;fillStyle=diag;step=5;fillStrokeWidth=0.2;fillStrokeColor=#dddddd;shadow=0;labelBackgroundColor=none;sketch=0;gradientColor=none;" vertex="1" parent="mUTu__eR83TACFGP-ZF0-1">
          <mxGeometry x="500" y="135" width="120" height="30" as="geometry" />
        </mxCell>
        <mxCell id="veDQz-YXpLXgy3ose9fv-24" value="&lt;span style=&quot;font-size: 10px&quot;&gt;00000000&lt;/span&gt;" style="text;html=1;resizable=0;autosize=1;align=center;verticalAlign=middle;points=[];fillColor=none;strokeColor=none;rounded=0;shadow=0;labelBackgroundColor=none;sketch=0;" vertex="1" parent="mUTu__eR83TACFGP-ZF0-1">
          <mxGeometry x="440" y="235" width="60" height="20" as="geometry" />
        </mxCell>
        <mxCell id="veDQz-YXpLXgy3ose9fv-25" value="&lt;span style=&quot;font-size: 10px&quot;&gt;20000000&lt;/span&gt;" style="text;html=1;resizable=0;autosize=1;align=center;verticalAlign=middle;points=[];fillColor=none;strokeColor=none;rounded=0;shadow=0;labelBackgroundColor=none;sketch=0;" vertex="1" parent="mUTu__eR83TACFGP-ZF0-1">
          <mxGeometry x="440" y="215" width="60" height="20" as="geometry" />
        </mxCell>
        <mxCell id="veDQz-YXpLXgy3ose9fv-26" value="&lt;span style=&quot;font-size: 10px&quot;&gt;40000000&lt;/span&gt;" style="text;html=1;resizable=0;autosize=1;align=center;verticalAlign=middle;points=[];fillColor=none;strokeColor=none;rounded=0;shadow=0;labelBackgroundColor=none;sketch=0;" vertex="1" parent="mUTu__eR83TACFGP-ZF0-1">
          <mxGeometry x="440" y="205" width="60" height="20" as="geometry" />
        </mxCell>
        <mxCell id="veDQz-YXpLXgy3ose9fv-27" value="&lt;span style=&quot;font-size: 10px&quot;&gt;80000000&lt;/span&gt;" style="text;html=1;resizable=0;autosize=1;align=center;verticalAlign=middle;points=[];fillColor=none;strokeColor=none;rounded=0;shadow=0;labelBackgroundColor=none;sketch=0;" vertex="1" parent="mUTu__eR83TACFGP-ZF0-1">
          <mxGeometry x="440" y="170" width="60" height="20" as="geometry" />
        </mxCell>
        <mxCell id="veDQz-YXpLXgy3ose9fv-28" value="&lt;span style=&quot;font-size: 10px&quot;&gt;90000000&lt;/span&gt;" style="text;html=1;resizable=0;autosize=1;align=center;verticalAlign=middle;points=[];fillColor=none;strokeColor=none;rounded=0;shadow=0;labelBackgroundColor=none;sketch=0;" vertex="1" parent="mUTu__eR83TACFGP-ZF0-1">
          <mxGeometry x="440" y="155" width="60" height="20" as="geometry" />
        </mxCell>
        <mxCell id="veDQz-YXpLXgy3ose9fv-29" value="&lt;span style=&quot;font-size: 10px&quot;&gt;C0000000&lt;/span&gt;" style="text;html=1;resizable=0;autosize=1;align=center;verticalAlign=middle;points=[];fillColor=none;strokeColor=none;rounded=0;shadow=0;labelBackgroundColor=none;sketch=0;" vertex="1" parent="mUTu__eR83TACFGP-ZF0-1">
          <mxGeometry x="440" y="125" width="60" height="20" as="geometry" />
        </mxCell>
        <mxCell id="veDQz-YXpLXgy3ose9fv-34" value="&lt;font style=&quot;font-size: 14px&quot;&gt;staticmem_region_list[0]&lt;/font&gt;" style="text;html=1;align=center;verticalAlign=middle;resizable=0;points=[];autosize=1;" vertex="1" parent="mUTu__eR83TACFGP-ZF0-1">
          <mxGeometry x="620" y="225" width="170" height="20" as="geometry" />
        </mxCell>
        <mxCell id="veDQz-YXpLXgy3ose9fv-35" value="&lt;font style=&quot;font-size: 14px&quot;&gt;staticmem_region_list[1]&lt;/font&gt;" style="text;html=1;align=center;verticalAlign=middle;resizable=0;points=[];autosize=1;" vertex="1" parent="mUTu__eR83TACFGP-ZF0-1">
          <mxGeometry x="620" y="185" width="170" height="20" as="geometry" />
        </mxCell>
        <mxCell id="veDQz-YXpLXgy3ose9fv-36" value="&lt;font style=&quot;font-size: 14px&quot;&gt;staticmem_region_list[2]&lt;/font&gt;" style="text;html=1;align=center;verticalAlign=middle;resizable=0;points=[];autosize=1;" vertex="1" parent="mUTu__eR83TACFGP-ZF0-1">
          <mxGeometry x="620" y="140" width="170" height="20" as="geometry" />
        </mxCell>
      </root>
    </mxGraphModel>
  </diagram>
  <diagram id="Ol7Aqy9kmjCqX7GoiWb9" name="Page-3">
    <mxGraphModel dx="920" dy="447" grid="1" gridSize="10" guides="1" tooltips="1" connect="1" arrows="1" fold="1" page="1" pageScale="1" pageWidth="850" pageHeight="1100" math="0" shadow="0">
      <root>
        <mxCell id="h5HFBt_uD0y3S9YLQ8NX-0" />
        <mxCell id="h5HFBt_uD0y3S9YLQ8NX-1" parent="h5HFBt_uD0y3S9YLQ8NX-0" />
        <mxCell id="0GRbfVODlAuiTHvCADVn-20" value="" style="verticalLabelPosition=bottom;verticalAlign=top;html=1;shape=mxgraph.basic.patternFillRect;fillStyle=diag;step=5;fillStrokeWidth=0.2;fillStrokeColor=#dddddd;shadow=0;labelBackgroundColor=none;sketch=0;gradientColor=none;" vertex="1" parent="h5HFBt_uD0y3S9YLQ8NX-1">
          <mxGeometry x="340" y="122.5" width="120" height="40" as="geometry" />
        </mxCell>
        <mxCell id="0GRbfVODlAuiTHvCADVn-1" value="" style="verticalLabelPosition=bottom;verticalAlign=top;html=1;shape=mxgraph.basic.patternFillRect;fillStyle=diag;step=5;fillStrokeWidth=0.2;fillStrokeColor=#dddddd;shadow=0;labelBackgroundColor=none;sketch=0;gradientColor=none;" vertex="1" parent="h5HFBt_uD0y3S9YLQ8NX-1">
          <mxGeometry x="100" y="160" width="120" height="40" as="geometry" />
        </mxCell>
        <mxCell id="0GRbfVODlAuiTHvCADVn-2" value="" style="verticalLabelPosition=bottom;verticalAlign=top;html=1;shape=mxgraph.basic.patternFillRect;fillStyle=diag;step=5;fillStrokeWidth=0.2;fillStrokeColor=#dddddd;shadow=0;labelBackgroundColor=none;sketch=0;gradientColor=none;" vertex="1" parent="h5HFBt_uD0y3S9YLQ8NX-1">
          <mxGeometry x="100" y="110" width="120" height="30" as="geometry" />
        </mxCell>
        <mxCell id="0GRbfVODlAuiTHvCADVn-3" value="&lt;span style=&quot;font-size: 10px&quot;&gt;00000000&lt;/span&gt;" style="text;html=1;resizable=0;autosize=1;align=center;verticalAlign=middle;points=[];fillColor=none;strokeColor=none;rounded=0;shadow=0;labelBackgroundColor=none;sketch=0;" vertex="1" parent="h5HFBt_uD0y3S9YLQ8NX-1">
          <mxGeometry x="40" y="230" width="60" height="20" as="geometry" />
        </mxCell>
        <mxCell id="0GRbfVODlAuiTHvCADVn-4" value="&lt;span style=&quot;font-size: 10px&quot;&gt;20000000&lt;/span&gt;" style="text;html=1;resizable=0;autosize=1;align=center;verticalAlign=middle;points=[];fillColor=none;strokeColor=none;rounded=0;shadow=0;labelBackgroundColor=none;sketch=0;" vertex="1" parent="h5HFBt_uD0y3S9YLQ8NX-1">
          <mxGeometry x="40" y="210" width="60" height="20" as="geometry" />
        </mxCell>
        <mxCell id="0GRbfVODlAuiTHvCADVn-5" value="&lt;span style=&quot;font-size: 10px&quot;&gt;40000000&lt;/span&gt;" style="text;html=1;resizable=0;autosize=1;align=center;verticalAlign=middle;points=[];fillColor=none;strokeColor=none;rounded=0;shadow=0;labelBackgroundColor=none;sketch=0;" vertex="1" parent="h5HFBt_uD0y3S9YLQ8NX-1">
          <mxGeometry x="40" y="190" width="60" height="20" as="geometry" />
        </mxCell>
        <mxCell id="0GRbfVODlAuiTHvCADVn-6" value="&lt;span style=&quot;font-size: 10px&quot;&gt;80000000&lt;/span&gt;" style="text;html=1;resizable=0;autosize=1;align=center;verticalAlign=middle;points=[];fillColor=none;strokeColor=none;rounded=0;shadow=0;labelBackgroundColor=none;sketch=0;" vertex="1" parent="h5HFBt_uD0y3S9YLQ8NX-1">
          <mxGeometry x="40" y="155" width="60" height="20" as="geometry" />
        </mxCell>
        <mxCell id="0GRbfVODlAuiTHvCADVn-7" value="&lt;span style=&quot;font-size: 10px&quot;&gt;90000000&lt;/span&gt;" style="text;html=1;resizable=0;autosize=1;align=center;verticalAlign=middle;points=[];fillColor=none;strokeColor=none;rounded=0;shadow=0;labelBackgroundColor=none;sketch=0;" vertex="1" parent="h5HFBt_uD0y3S9YLQ8NX-1">
          <mxGeometry x="40" y="130" width="60" height="20" as="geometry" />
        </mxCell>
        <mxCell id="0GRbfVODlAuiTHvCADVn-8" value="&lt;span style=&quot;font-size: 10px&quot;&gt;C0000000&lt;/span&gt;" style="text;html=1;resizable=0;autosize=1;align=center;verticalAlign=middle;points=[];fillColor=none;strokeColor=none;rounded=0;shadow=0;labelBackgroundColor=none;sketch=0;" vertex="1" parent="h5HFBt_uD0y3S9YLQ8NX-1">
          <mxGeometry x="40" y="100" width="60" height="20" as="geometry" />
        </mxCell>
        <mxCell id="0GRbfVODlAuiTHvCADVn-9" value="&lt;font style=&quot;font-size: 10px&quot;&gt;staticmem_region_list[0]&lt;/font&gt;" style="text;html=1;align=center;verticalAlign=middle;resizable=0;points=[];autosize=1;" vertex="1" parent="h5HFBt_uD0y3S9YLQ8NX-1">
          <mxGeometry x="100" y="240" width="120" height="20" as="geometry" />
        </mxCell>
        <mxCell id="0GRbfVODlAuiTHvCADVn-10" value="&lt;font style=&quot;font-size: 10px&quot;&gt;staticmem_region_list[1]&lt;/font&gt;" style="text;html=1;align=center;verticalAlign=middle;resizable=0;points=[];autosize=1;" vertex="1" parent="h5HFBt_uD0y3S9YLQ8NX-1">
          <mxGeometry x="100" y="200" width="120" height="20" as="geometry" />
        </mxCell>
        <mxCell id="0GRbfVODlAuiTHvCADVn-11" value="&lt;font style=&quot;font-size: 10px&quot;&gt;staticmem_region_list[2]&lt;/font&gt;" style="text;html=1;align=center;verticalAlign=middle;resizable=0;points=[];autosize=1;" vertex="1" parent="h5HFBt_uD0y3S9YLQ8NX-1">
          <mxGeometry x="100" y="140" width="120" height="20" as="geometry" />
        </mxCell>
        <mxCell id="0GRbfVODlAuiTHvCADVn-16" value="" style="html=1;shadow=0;dashed=0;align=center;verticalAlign=middle;shape=mxgraph.arrows2.arrow;dy=0.59;dx=30.33;notch=0;labelBackgroundColor=none;sketch=0;gradientColor=none;" vertex="1" parent="h5HFBt_uD0y3S9YLQ8NX-1">
          <mxGeometry x="230" y="165" width="50" height="30" as="geometry" />
        </mxCell>
        <mxCell id="0GRbfVODlAuiTHvCADVn-18" value="" style="verticalLabelPosition=bottom;verticalAlign=top;html=1;shape=mxgraph.basic.patternFillRect;fillStyle=diag;step=5;fillStrokeWidth=0.2;fillStrokeColor=#dddddd;shadow=0;labelBackgroundColor=none;sketch=0;gradientColor=none;" vertex="1" parent="h5HFBt_uD0y3S9YLQ8NX-1">
          <mxGeometry x="100" y="160" width="120" height="40" as="geometry" />
        </mxCell>
        <mxCell id="0GRbfVODlAuiTHvCADVn-19" value="&lt;span style=&quot;font-size: 10px&quot;&gt;80000000&lt;/span&gt;" style="text;html=1;resizable=0;autosize=1;align=center;verticalAlign=middle;points=[];fillColor=none;strokeColor=none;rounded=0;shadow=0;labelBackgroundColor=none;sketch=0;" vertex="1" parent="h5HFBt_uD0y3S9YLQ8NX-1">
          <mxGeometry x="40" y="155" width="60" height="20" as="geometry" />
        </mxCell>
        <mxCell id="0GRbfVODlAuiTHvCADVn-21" value="&lt;span style=&quot;font-size: 10px&quot;&gt;80000000&lt;/span&gt;" style="text;html=1;resizable=0;autosize=1;align=center;verticalAlign=middle;points=[];fillColor=none;strokeColor=none;rounded=0;shadow=0;labelBackgroundColor=none;sketch=0;" vertex="1" parent="h5HFBt_uD0y3S9YLQ8NX-1">
          <mxGeometry x="280" y="110" width="60" height="20" as="geometry" />
        </mxCell>
        <mxCell id="0GRbfVODlAuiTHvCADVn-22" value="&lt;span style=&quot;font-size: 10px&quot;&gt;40000000&lt;/span&gt;" style="text;html=1;resizable=0;autosize=1;align=center;verticalAlign=middle;points=[];fillColor=none;strokeColor=none;rounded=0;shadow=0;labelBackgroundColor=none;sketch=0;" vertex="1" parent="h5HFBt_uD0y3S9YLQ8NX-1">
          <mxGeometry x="280" y="160" width="60" height="20" as="geometry" />
        </mxCell>
        <mxCell id="0GRbfVODlAuiTHvCADVn-26" value="" style="verticalLabelPosition=bottom;verticalAlign=top;html=1;shape=mxgraph.basic.patternFillRect;fillStyle=diagRev;step=5;fillStrokeWidth=0.2;fillStrokeColor=#dddddd;shadow=0;labelBackgroundColor=none;sketch=0;fillColor=#dae8fc;strokeColor=#6c8ebf;" vertex="1" parent="h5HFBt_uD0y3S9YLQ8NX-1">
          <mxGeometry x="340" y="132.5" width="120" height="20" as="geometry" />
        </mxCell>
        <mxCell id="0GRbfVODlAuiTHvCADVn-27" value="&lt;span style=&quot;font-size: 10px&quot;&gt;70000000&lt;/span&gt;" style="text;html=1;resizable=0;autosize=1;align=center;verticalAlign=middle;points=[];fillColor=none;strokeColor=none;rounded=0;shadow=0;labelBackgroundColor=none;sketch=0;" vertex="1" parent="h5HFBt_uD0y3S9YLQ8NX-1">
          <mxGeometry x="280" y="120" width="60" height="20" as="geometry" />
        </mxCell>
        <mxCell id="BcFYDZoKD7v78QOs0sxj-0" value="" style="verticalLabelPosition=bottom;verticalAlign=top;html=1;shape=mxgraph.basic.patternFillRect;fillStyle=diag;step=5;fillStrokeWidth=0.2;fillStrokeColor=#dddddd;shadow=0;labelBackgroundColor=none;sketch=0;gradientColor=none;" vertex="1" parent="h5HFBt_uD0y3S9YLQ8NX-1">
          <mxGeometry x="100" y="220" width="120" height="20" as="geometry" />
        </mxCell>
        <mxCell id="BcFYDZoKD7v78QOs0sxj-2" value="&lt;font style=&quot;font-size: 10px&quot;&gt;staticmem_region_list[1]&lt;/font&gt;" style="text;html=1;align=center;verticalAlign=middle;resizable=0;points=[];autosize=1;" vertex="1" parent="h5HFBt_uD0y3S9YLQ8NX-1">
          <mxGeometry x="340" y="165" width="120" height="20" as="geometry" />
        </mxCell>
        <mxCell id="BcFYDZoKD7v78QOs0sxj-4" value="&lt;span style=&quot;font-size: 10px&quot;&gt;50000000&lt;/span&gt;" style="text;html=1;resizable=0;autosize=1;align=center;verticalAlign=middle;points=[];fillColor=none;strokeColor=none;rounded=0;shadow=0;labelBackgroundColor=none;sketch=0;" vertex="1" parent="h5HFBt_uD0y3S9YLQ8NX-1">
          <mxGeometry x="280" y="145" width="60" height="20" as="geometry" />
        </mxCell>
        <mxCell id="BcFYDZoKD7v78QOs0sxj-6" value="" style="verticalLabelPosition=bottom;verticalAlign=top;html=1;shape=mxgraph.basic.patternFillRect;fillStyle=diag;step=5;fillStrokeWidth=0.2;fillStrokeColor=#dddddd;shadow=0;labelBackgroundColor=none;sketch=0;gradientColor=none;" vertex="1" parent="h5HFBt_uD0y3S9YLQ8NX-1">
          <mxGeometry x="590" y="100" width="120" height="30" as="geometry" />
        </mxCell>
        <mxCell id="BcFYDZoKD7v78QOs0sxj-7" value="&lt;span style=&quot;font-size: 10px&quot;&gt;00000000&lt;/span&gt;" style="text;html=1;resizable=0;autosize=1;align=center;verticalAlign=middle;points=[];fillColor=none;strokeColor=none;rounded=0;shadow=0;labelBackgroundColor=none;sketch=0;" vertex="1" parent="h5HFBt_uD0y3S9YLQ8NX-1">
          <mxGeometry x="530" y="240" width="60" height="20" as="geometry" />
        </mxCell>
        <mxCell id="BcFYDZoKD7v78QOs0sxj-8" value="&lt;span style=&quot;font-size: 10px&quot;&gt;20000000&lt;/span&gt;" style="text;html=1;resizable=0;autosize=1;align=center;verticalAlign=middle;points=[];fillColor=none;strokeColor=none;rounded=0;shadow=0;labelBackgroundColor=none;sketch=0;" vertex="1" parent="h5HFBt_uD0y3S9YLQ8NX-1">
          <mxGeometry x="530" y="220" width="60" height="20" as="geometry" />
        </mxCell>
        <mxCell id="BcFYDZoKD7v78QOs0sxj-10" value="&lt;span style=&quot;font-size: 10px&quot;&gt;80000000&lt;/span&gt;" style="text;html=1;resizable=0;autosize=1;align=center;verticalAlign=middle;points=[];fillColor=none;strokeColor=none;rounded=0;shadow=0;labelBackgroundColor=none;sketch=0;" vertex="1" parent="h5HFBt_uD0y3S9YLQ8NX-1">
          <mxGeometry x="530" y="145" width="60" height="20" as="geometry" />
        </mxCell>
        <mxCell id="BcFYDZoKD7v78QOs0sxj-11" value="&lt;span style=&quot;font-size: 10px&quot;&gt;90000000&lt;/span&gt;" style="text;html=1;resizable=0;autosize=1;align=center;verticalAlign=middle;points=[];fillColor=none;strokeColor=none;rounded=0;shadow=0;labelBackgroundColor=none;sketch=0;" vertex="1" parent="h5HFBt_uD0y3S9YLQ8NX-1">
          <mxGeometry x="530" y="120" width="60" height="20" as="geometry" />
        </mxCell>
        <mxCell id="BcFYDZoKD7v78QOs0sxj-12" value="&lt;span style=&quot;font-size: 10px&quot;&gt;C0000000&lt;/span&gt;" style="text;html=1;resizable=0;autosize=1;align=center;verticalAlign=middle;points=[];fillColor=none;strokeColor=none;rounded=0;shadow=0;labelBackgroundColor=none;sketch=0;" vertex="1" parent="h5HFBt_uD0y3S9YLQ8NX-1">
          <mxGeometry x="530" y="90" width="60" height="20" as="geometry" />
        </mxCell>
        <mxCell id="BcFYDZoKD7v78QOs0sxj-13" value="&lt;font style=&quot;font-size: 10px&quot;&gt;staticmem_region_list[0]&lt;/font&gt;" style="text;html=1;align=center;verticalAlign=middle;resizable=0;points=[];autosize=1;" vertex="1" parent="h5HFBt_uD0y3S9YLQ8NX-1">
          <mxGeometry x="590" y="250" width="120" height="20" as="geometry" />
        </mxCell>
        <mxCell id="BcFYDZoKD7v78QOs0sxj-14" value="&lt;font style=&quot;font-size: 10px&quot;&gt;staticmem_region_list[2]&lt;/font&gt;" style="text;html=1;align=center;verticalAlign=middle;resizable=0;points=[];autosize=1;" vertex="1" parent="h5HFBt_uD0y3S9YLQ8NX-1">
          <mxGeometry x="590" y="167.5" width="120" height="20" as="geometry" />
        </mxCell>
        <mxCell id="BcFYDZoKD7v78QOs0sxj-15" value="&lt;font style=&quot;font-size: 10px&quot;&gt;staticmem_region_list[3]&lt;/font&gt;" style="text;html=1;align=center;verticalAlign=middle;resizable=0;points=[];autosize=1;" vertex="1" parent="h5HFBt_uD0y3S9YLQ8NX-1">
          <mxGeometry x="590" y="130" width="120" height="20" as="geometry" />
        </mxCell>
        <mxCell id="BcFYDZoKD7v78QOs0sxj-18" value="" style="verticalLabelPosition=bottom;verticalAlign=top;html=1;shape=mxgraph.basic.patternFillRect;fillStyle=diag;step=5;fillStrokeWidth=0.2;fillStrokeColor=#dddddd;shadow=0;labelBackgroundColor=none;sketch=0;gradientColor=none;" vertex="1" parent="h5HFBt_uD0y3S9YLQ8NX-1">
          <mxGeometry x="590" y="230" width="120" height="20" as="geometry" />
        </mxCell>
        <mxCell id="BcFYDZoKD7v78QOs0sxj-22" value="" style="verticalLabelPosition=bottom;verticalAlign=top;html=1;shape=mxgraph.basic.patternFillRect;fillStyle=diag;step=5;fillStrokeWidth=0.2;fillStrokeColor=#dddddd;shadow=0;labelBackgroundColor=none;sketch=0;gradientColor=none;" vertex="1" parent="h5HFBt_uD0y3S9YLQ8NX-1">
          <mxGeometry x="590" y="157.5" width="120" height="10" as="geometry" />
        </mxCell>
        <mxCell id="BcFYDZoKD7v78QOs0sxj-23" value="&lt;span style=&quot;font-size: 10px&quot;&gt;70000000&lt;/span&gt;" style="text;html=1;resizable=0;autosize=1;align=center;verticalAlign=middle;points=[];fillColor=none;strokeColor=none;rounded=0;shadow=0;labelBackgroundColor=none;sketch=0;" vertex="1" parent="h5HFBt_uD0y3S9YLQ8NX-1">
          <mxGeometry x="530" y="165" width="60" height="20" as="geometry" />
        </mxCell>
        <mxCell id="BcFYDZoKD7v78QOs0sxj-26" value="&lt;span style=&quot;font-size: 10px&quot;&gt;80000000&lt;/span&gt;" style="text;html=1;resizable=0;autosize=1;align=center;verticalAlign=middle;points=[];fillColor=none;strokeColor=none;rounded=0;shadow=0;labelBackgroundColor=none;sketch=0;" vertex="1" parent="h5HFBt_uD0y3S9YLQ8NX-1">
          <mxGeometry x="530" y="145" width="60" height="20" as="geometry" />
        </mxCell>
        <mxCell id="BcFYDZoKD7v78QOs0sxj-27" value="&lt;font style=&quot;font-size: 10px&quot;&gt;staticmem_region_list[2]&lt;/font&gt;" style="text;html=1;align=center;verticalAlign=middle;resizable=0;points=[];autosize=1;" vertex="1" parent="h5HFBt_uD0y3S9YLQ8NX-1">
          <mxGeometry x="590" y="167.5" width="120" height="20" as="geometry" />
        </mxCell>
        <mxCell id="BcFYDZoKD7v78QOs0sxj-30" value="&lt;span style=&quot;font-size: 10px&quot;&gt;50000000&lt;/span&gt;" style="text;html=1;resizable=0;autosize=1;align=center;verticalAlign=middle;points=[];fillColor=none;strokeColor=none;rounded=0;shadow=0;labelBackgroundColor=none;sketch=0;" vertex="1" parent="h5HFBt_uD0y3S9YLQ8NX-1">
          <mxGeometry x="530" y="180" width="60" height="20" as="geometry" />
        </mxCell>
        <mxCell id="BcFYDZoKD7v78QOs0sxj-31" value="" style="verticalLabelPosition=bottom;verticalAlign=top;html=1;shape=mxgraph.basic.patternFillRect;fillStyle=diag;step=5;fillStrokeWidth=0.2;fillStrokeColor=#dddddd;shadow=0;labelBackgroundColor=none;sketch=0;gradientColor=none;" vertex="1" parent="h5HFBt_uD0y3S9YLQ8NX-1">
          <mxGeometry x="590" y="192.5" width="120" height="10" as="geometry" />
        </mxCell>
        <mxCell id="BcFYDZoKD7v78QOs0sxj-34" value="&lt;span style=&quot;font-size: 10px&quot;&gt;40000000&lt;/span&gt;" style="text;html=1;resizable=0;autosize=1;align=center;verticalAlign=middle;points=[];fillColor=none;strokeColor=none;rounded=0;shadow=0;labelBackgroundColor=none;sketch=0;" vertex="1" parent="h5HFBt_uD0y3S9YLQ8NX-1">
          <mxGeometry x="530" y="200" width="60" height="20" as="geometry" />
        </mxCell>
        <mxCell id="BcFYDZoKD7v78QOs0sxj-35" value="&lt;font style=&quot;font-size: 10px&quot;&gt;staticmem_region_list[1]&lt;/font&gt;" style="text;html=1;align=center;verticalAlign=middle;resizable=0;points=[];autosize=1;" vertex="1" parent="h5HFBt_uD0y3S9YLQ8NX-1">
          <mxGeometry x="590" y="202.5" width="120" height="20" as="geometry" />
        </mxCell>
        <mxCell id="BcFYDZoKD7v78QOs0sxj-40" value="" style="shape=singleArrow;direction=south;whiteSpace=wrap;html=1;shadow=0;labelBackgroundColor=none;sketch=0;gradientColor=none;arrowWidth=0.374330437320405;arrowSize=0.6689644649110988;" vertex="1" parent="h5HFBt_uD0y3S9YLQ8NX-1">
          <mxGeometry x="370" y="190" width="60" height="20" as="geometry" />
        </mxCell>
        <mxCell id="BcFYDZoKD7v78QOs0sxj-42" value="" style="verticalLabelPosition=bottom;verticalAlign=top;html=1;shape=mxgraph.basic.patternFillRect;fillStyle=diagRev;step=5;fillStrokeWidth=0.2;fillStrokeColor=#dddddd;shadow=0;labelBackgroundColor=none;sketch=0;fillColor=#dae8fc;strokeColor=#6c8ebf;" vertex="1" parent="h5HFBt_uD0y3S9YLQ8NX-1">
          <mxGeometry x="340" y="222.5" width="120" height="20" as="geometry" />
        </mxCell>
        <mxCell id="BcFYDZoKD7v78QOs0sxj-43" value="&lt;span style=&quot;font-size: 10px&quot;&gt;70000000&lt;/span&gt;" style="text;html=1;resizable=0;autosize=1;align=center;verticalAlign=middle;points=[];fillColor=none;strokeColor=none;rounded=0;shadow=0;labelBackgroundColor=none;sketch=0;" vertex="1" parent="h5HFBt_uD0y3S9YLQ8NX-1">
          <mxGeometry x="280" y="210" width="60" height="20" as="geometry" />
        </mxCell>
        <mxCell id="BcFYDZoKD7v78QOs0sxj-44" value="&lt;span style=&quot;font-size: 10px&quot;&gt;50000000&lt;/span&gt;" style="text;html=1;resizable=0;autosize=1;align=center;verticalAlign=middle;points=[];fillColor=none;strokeColor=none;rounded=0;shadow=0;labelBackgroundColor=none;sketch=0;" vertex="1" parent="h5HFBt_uD0y3S9YLQ8NX-1">
          <mxGeometry x="280" y="235" width="60" height="20" as="geometry" />
        </mxCell>
        <mxCell id="BcFYDZoKD7v78QOs0sxj-45" value="" style="html=1;shadow=0;dashed=0;align=center;verticalAlign=middle;shape=mxgraph.arrows2.arrow;dy=0.59;dx=30.33;notch=0;labelBackgroundColor=none;sketch=0;gradientColor=none;" vertex="1" parent="h5HFBt_uD0y3S9YLQ8NX-1">
          <mxGeometry x="470" y="165" width="50" height="30" as="geometry" />
        </mxCell>
      </root>
    </mxGraphModel>
  </diagram>
  <diagram id="ESJyWyOzCPCCgERMdm5t" name="Page-4">
    <mxGraphModel dx="539" dy="262" grid="1" gridSize="10" guides="1" tooltips="1" connect="1" arrows="1" fold="1" page="1" pageScale="1" pageWidth="850" pageHeight="1100" math="0" shadow="0">
      <root>
        <mxCell id="PeCHgGS-uUAK1-k6KW_p-0" />
        <mxCell id="PeCHgGS-uUAK1-k6KW_p-1" parent="PeCHgGS-uUAK1-k6KW_p-0" />
        <mxCell id="PeCHgGS-uUAK1-k6KW_p-2" value="" style="verticalLabelPosition=bottom;verticalAlign=top;html=1;shape=mxgraph.basic.patternFillRect;fillStyle=diag;step=5;fillStrokeWidth=0.2;fillStrokeColor=#dddddd;shadow=0;labelBackgroundColor=none;sketch=0;gradientColor=none;" vertex="1" parent="PeCHgGS-uUAK1-k6KW_p-1">
          <mxGeometry x="340" y="130" width="120" height="30" as="geometry" />
        </mxCell>
        <mxCell id="PeCHgGS-uUAK1-k6KW_p-3" value="" style="verticalLabelPosition=bottom;verticalAlign=top;html=1;shape=mxgraph.basic.patternFillRect;fillStyle=diag;step=5;fillStrokeWidth=0.2;fillStrokeColor=#dddddd;shadow=0;labelBackgroundColor=none;sketch=0;gradientColor=none;" vertex="1" parent="PeCHgGS-uUAK1-k6KW_p-1">
          <mxGeometry x="100" y="160" width="120" height="40" as="geometry" />
        </mxCell>
        <mxCell id="PeCHgGS-uUAK1-k6KW_p-4" value="" style="verticalLabelPosition=bottom;verticalAlign=top;html=1;shape=mxgraph.basic.patternFillRect;fillStyle=diag;step=5;fillStrokeWidth=0.2;fillStrokeColor=#dddddd;shadow=0;labelBackgroundColor=none;sketch=0;gradientColor=none;" vertex="1" parent="PeCHgGS-uUAK1-k6KW_p-1">
          <mxGeometry x="100" y="110" width="120" height="30" as="geometry" />
        </mxCell>
        <mxCell id="PeCHgGS-uUAK1-k6KW_p-5" value="&lt;span style=&quot;font-size: 10px&quot;&gt;00000000&lt;/span&gt;" style="text;html=1;resizable=0;autosize=1;align=center;verticalAlign=middle;points=[];fillColor=none;strokeColor=none;rounded=0;shadow=0;labelBackgroundColor=none;sketch=0;" vertex="1" parent="PeCHgGS-uUAK1-k6KW_p-1">
          <mxGeometry x="40" y="230" width="60" height="20" as="geometry" />
        </mxCell>
        <mxCell id="PeCHgGS-uUAK1-k6KW_p-6" value="&lt;span style=&quot;font-size: 10px&quot;&gt;20000000&lt;/span&gt;" style="text;html=1;resizable=0;autosize=1;align=center;verticalAlign=middle;points=[];fillColor=none;strokeColor=none;rounded=0;shadow=0;labelBackgroundColor=none;sketch=0;" vertex="1" parent="PeCHgGS-uUAK1-k6KW_p-1">
          <mxGeometry x="40" y="210" width="60" height="20" as="geometry" />
        </mxCell>
        <mxCell id="PeCHgGS-uUAK1-k6KW_p-7" value="&lt;span style=&quot;font-size: 10px&quot;&gt;40000000&lt;/span&gt;" style="text;html=1;resizable=0;autosize=1;align=center;verticalAlign=middle;points=[];fillColor=none;strokeColor=none;rounded=0;shadow=0;labelBackgroundColor=none;sketch=0;" vertex="1" parent="PeCHgGS-uUAK1-k6KW_p-1">
          <mxGeometry x="40" y="190" width="60" height="20" as="geometry" />
        </mxCell>
        <mxCell id="PeCHgGS-uUAK1-k6KW_p-8" value="&lt;span style=&quot;font-size: 10px&quot;&gt;80000000&lt;/span&gt;" style="text;html=1;resizable=0;autosize=1;align=center;verticalAlign=middle;points=[];fillColor=none;strokeColor=none;rounded=0;shadow=0;labelBackgroundColor=none;sketch=0;" vertex="1" parent="PeCHgGS-uUAK1-k6KW_p-1">
          <mxGeometry x="40" y="155" width="60" height="20" as="geometry" />
        </mxCell>
        <mxCell id="PeCHgGS-uUAK1-k6KW_p-9" value="&lt;span style=&quot;font-size: 10px&quot;&gt;90000000&lt;/span&gt;" style="text;html=1;resizable=0;autosize=1;align=center;verticalAlign=middle;points=[];fillColor=none;strokeColor=none;rounded=0;shadow=0;labelBackgroundColor=none;sketch=0;" vertex="1" parent="PeCHgGS-uUAK1-k6KW_p-1">
          <mxGeometry x="40" y="130" width="60" height="20" as="geometry" />
        </mxCell>
        <mxCell id="PeCHgGS-uUAK1-k6KW_p-10" value="&lt;span style=&quot;font-size: 10px&quot;&gt;C0000000&lt;/span&gt;" style="text;html=1;resizable=0;autosize=1;align=center;verticalAlign=middle;points=[];fillColor=none;strokeColor=none;rounded=0;shadow=0;labelBackgroundColor=none;sketch=0;" vertex="1" parent="PeCHgGS-uUAK1-k6KW_p-1">
          <mxGeometry x="40" y="100" width="60" height="20" as="geometry" />
        </mxCell>
        <mxCell id="PeCHgGS-uUAK1-k6KW_p-11" value="&lt;font style=&quot;font-size: 10px&quot;&gt;staticmem_region_list[0]&lt;/font&gt;" style="text;html=1;align=center;verticalAlign=middle;resizable=0;points=[];autosize=1;" vertex="1" parent="PeCHgGS-uUAK1-k6KW_p-1">
          <mxGeometry x="100" y="240" width="120" height="20" as="geometry" />
        </mxCell>
        <mxCell id="PeCHgGS-uUAK1-k6KW_p-12" value="&lt;font style=&quot;font-size: 10px&quot;&gt;staticmem_region_list[1]&lt;/font&gt;" style="text;html=1;align=center;verticalAlign=middle;resizable=0;points=[];autosize=1;" vertex="1" parent="PeCHgGS-uUAK1-k6KW_p-1">
          <mxGeometry x="100" y="200" width="120" height="20" as="geometry" />
        </mxCell>
        <mxCell id="PeCHgGS-uUAK1-k6KW_p-13" value="&lt;font style=&quot;font-size: 10px&quot;&gt;staticmem_region_list[2]&lt;/font&gt;" style="text;html=1;align=center;verticalAlign=middle;resizable=0;points=[];autosize=1;" vertex="1" parent="PeCHgGS-uUAK1-k6KW_p-1">
          <mxGeometry x="100" y="140" width="120" height="20" as="geometry" />
        </mxCell>
        <mxCell id="PeCHgGS-uUAK1-k6KW_p-14" value="" style="html=1;shadow=0;dashed=0;align=center;verticalAlign=middle;shape=mxgraph.arrows2.arrow;dy=0.59;dx=30.33;notch=0;labelBackgroundColor=none;sketch=0;gradientColor=none;" vertex="1" parent="PeCHgGS-uUAK1-k6KW_p-1">
          <mxGeometry x="230" y="165" width="50" height="30" as="geometry" />
        </mxCell>
        <mxCell id="PeCHgGS-uUAK1-k6KW_p-15" value="" style="verticalLabelPosition=bottom;verticalAlign=top;html=1;shape=mxgraph.basic.patternFillRect;fillStyle=diag;step=5;fillStrokeWidth=0.2;fillStrokeColor=#dddddd;shadow=0;labelBackgroundColor=none;sketch=0;gradientColor=none;" vertex="1" parent="PeCHgGS-uUAK1-k6KW_p-1">
          <mxGeometry x="100" y="160" width="120" height="40" as="geometry" />
        </mxCell>
        <mxCell id="PeCHgGS-uUAK1-k6KW_p-16" value="&lt;span style=&quot;font-size: 10px&quot;&gt;80000000&lt;/span&gt;" style="text;html=1;resizable=0;autosize=1;align=center;verticalAlign=middle;points=[];fillColor=none;strokeColor=none;rounded=0;shadow=0;labelBackgroundColor=none;sketch=0;" vertex="1" parent="PeCHgGS-uUAK1-k6KW_p-1">
          <mxGeometry x="40" y="155" width="60" height="20" as="geometry" />
        </mxCell>
        <mxCell id="PeCHgGS-uUAK1-k6KW_p-17" value="&lt;span style=&quot;font-size: 10px&quot;&gt;80000000&lt;/span&gt;" style="text;html=1;resizable=0;autosize=1;align=center;verticalAlign=middle;points=[];fillColor=none;strokeColor=none;rounded=0;shadow=0;labelBackgroundColor=none;sketch=0;" vertex="1" parent="PeCHgGS-uUAK1-k6KW_p-1">
          <mxGeometry x="280" y="105" width="60" height="20" as="geometry" />
        </mxCell>
        <mxCell id="PeCHgGS-uUAK1-k6KW_p-18" value="&lt;span style=&quot;font-size: 10px&quot;&gt;40000000&lt;/span&gt;" style="text;html=1;resizable=0;autosize=1;align=center;verticalAlign=middle;points=[];fillColor=none;strokeColor=none;rounded=0;shadow=0;labelBackgroundColor=none;sketch=0;" vertex="1" parent="PeCHgGS-uUAK1-k6KW_p-1">
          <mxGeometry x="280" y="155" width="60" height="20" as="geometry" />
        </mxCell>
        <mxCell id="PeCHgGS-uUAK1-k6KW_p-19" value="" style="verticalLabelPosition=bottom;verticalAlign=top;html=1;shape=mxgraph.basic.patternFillRect;fillStyle=diagRev;step=5;fillStrokeWidth=0.2;fillStrokeColor=#dddddd;shadow=0;labelBackgroundColor=none;sketch=0;fillColor=#dae8fc;strokeColor=#6c8ebf;" vertex="1" parent="PeCHgGS-uUAK1-k6KW_p-1">
          <mxGeometry x="340" y="120" width="120" height="10" as="geometry" />
        </mxCell>
        <mxCell id="PeCHgGS-uUAK1-k6KW_p-20" value="&lt;span style=&quot;font-size: 10px&quot;&gt;70000000&lt;/span&gt;" style="text;html=1;resizable=0;autosize=1;align=center;verticalAlign=middle;points=[];fillColor=none;strokeColor=none;rounded=0;shadow=0;labelBackgroundColor=none;sketch=0;" vertex="1" parent="PeCHgGS-uUAK1-k6KW_p-1">
          <mxGeometry x="280" y="125" width="60" height="20" as="geometry" />
        </mxCell>
        <mxCell id="PeCHgGS-uUAK1-k6KW_p-21" value="" style="verticalLabelPosition=bottom;verticalAlign=top;html=1;shape=mxgraph.basic.patternFillRect;fillStyle=diag;step=5;fillStrokeWidth=0.2;fillStrokeColor=#dddddd;shadow=0;labelBackgroundColor=none;sketch=0;gradientColor=none;" vertex="1" parent="PeCHgGS-uUAK1-k6KW_p-1">
          <mxGeometry x="100" y="220" width="120" height="20" as="geometry" />
        </mxCell>
        <mxCell id="PeCHgGS-uUAK1-k6KW_p-22" value="&lt;font style=&quot;font-size: 10px&quot;&gt;staticmem_region_list[1]&lt;/font&gt;" style="text;html=1;align=center;verticalAlign=middle;resizable=0;points=[];autosize=1;" vertex="1" parent="PeCHgGS-uUAK1-k6KW_p-1">
          <mxGeometry x="340" y="160" width="120" height="20" as="geometry" />
        </mxCell>
        <mxCell id="PeCHgGS-uUAK1-k6KW_p-24" value="" style="verticalLabelPosition=bottom;verticalAlign=top;html=1;shape=mxgraph.basic.patternFillRect;fillStyle=diag;step=5;fillStrokeWidth=0.2;fillStrokeColor=#dddddd;shadow=0;labelBackgroundColor=none;sketch=0;gradientColor=none;" vertex="1" parent="PeCHgGS-uUAK1-k6KW_p-1">
          <mxGeometry x="590" y="115" width="120" height="30" as="geometry" />
        </mxCell>
        <mxCell id="PeCHgGS-uUAK1-k6KW_p-25" value="&lt;span style=&quot;font-size: 10px&quot;&gt;00000000&lt;/span&gt;" style="text;html=1;resizable=0;autosize=1;align=center;verticalAlign=middle;points=[];fillColor=none;strokeColor=none;rounded=0;shadow=0;labelBackgroundColor=none;sketch=0;" vertex="1" parent="PeCHgGS-uUAK1-k6KW_p-1">
          <mxGeometry x="530" y="240" width="60" height="20" as="geometry" />
        </mxCell>
        <mxCell id="PeCHgGS-uUAK1-k6KW_p-26" value="&lt;span style=&quot;font-size: 10px&quot;&gt;20000000&lt;/span&gt;" style="text;html=1;resizable=0;autosize=1;align=center;verticalAlign=middle;points=[];fillColor=none;strokeColor=none;rounded=0;shadow=0;labelBackgroundColor=none;sketch=0;" vertex="1" parent="PeCHgGS-uUAK1-k6KW_p-1">
          <mxGeometry x="530" y="220" width="60" height="20" as="geometry" />
        </mxCell>
        <mxCell id="PeCHgGS-uUAK1-k6KW_p-28" value="&lt;span style=&quot;font-size: 10px&quot;&gt;90000000&lt;/span&gt;" style="text;html=1;resizable=0;autosize=1;align=center;verticalAlign=middle;points=[];fillColor=none;strokeColor=none;rounded=0;shadow=0;labelBackgroundColor=none;sketch=0;" vertex="1" parent="PeCHgGS-uUAK1-k6KW_p-1">
          <mxGeometry x="530" y="140" width="60" height="20" as="geometry" />
        </mxCell>
        <mxCell id="PeCHgGS-uUAK1-k6KW_p-29" value="&lt;span style=&quot;font-size: 10px&quot;&gt;C0000000&lt;/span&gt;" style="text;html=1;resizable=0;autosize=1;align=center;verticalAlign=middle;points=[];fillColor=none;strokeColor=none;rounded=0;shadow=0;labelBackgroundColor=none;sketch=0;" vertex="1" parent="PeCHgGS-uUAK1-k6KW_p-1">
          <mxGeometry x="530" y="105" width="60" height="20" as="geometry" />
        </mxCell>
        <mxCell id="PeCHgGS-uUAK1-k6KW_p-30" value="&lt;font style=&quot;font-size: 10px&quot;&gt;staticmem_region_list[0]&lt;/font&gt;" style="text;html=1;align=center;verticalAlign=middle;resizable=0;points=[];autosize=1;" vertex="1" parent="PeCHgGS-uUAK1-k6KW_p-1">
          <mxGeometry x="590" y="250" width="120" height="20" as="geometry" />
        </mxCell>
        <mxCell id="PeCHgGS-uUAK1-k6KW_p-32" value="&lt;font style=&quot;font-size: 10px&quot;&gt;staticmem_region_list[2]&lt;/font&gt;" style="text;html=1;align=center;verticalAlign=middle;resizable=0;points=[];autosize=1;" vertex="1" parent="PeCHgGS-uUAK1-k6KW_p-1">
          <mxGeometry x="590" y="145" width="120" height="20" as="geometry" />
        </mxCell>
        <mxCell id="PeCHgGS-uUAK1-k6KW_p-33" value="" style="verticalLabelPosition=bottom;verticalAlign=top;html=1;shape=mxgraph.basic.patternFillRect;fillStyle=diag;step=5;fillStrokeWidth=0.2;fillStrokeColor=#dddddd;shadow=0;labelBackgroundColor=none;sketch=0;gradientColor=none;" vertex="1" parent="PeCHgGS-uUAK1-k6KW_p-1">
          <mxGeometry x="590" y="230" width="120" height="20" as="geometry" />
        </mxCell>
        <mxCell id="PeCHgGS-uUAK1-k6KW_p-41" value="&lt;font style=&quot;font-size: 10px&quot;&gt;staticmem_region_list[1]&lt;/font&gt;" style="text;html=1;align=center;verticalAlign=middle;resizable=0;points=[];autosize=1;" vertex="1" parent="PeCHgGS-uUAK1-k6KW_p-1">
          <mxGeometry x="590" y="202.5" width="120" height="20" as="geometry" />
        </mxCell>
        <mxCell id="PeCHgGS-uUAK1-k6KW_p-42" value="" style="shape=singleArrow;direction=south;whiteSpace=wrap;html=1;shadow=0;labelBackgroundColor=none;sketch=0;gradientColor=none;arrowWidth=0.374330437320405;arrowSize=0.6689644649110988;" vertex="1" parent="PeCHgGS-uUAK1-k6KW_p-1">
          <mxGeometry x="370" y="182.5" width="60" height="40" as="geometry" />
        </mxCell>
        <mxCell id="PeCHgGS-uUAK1-k6KW_p-44" value="&lt;span style=&quot;font-size: 10px&quot;&gt;80000000&lt;/span&gt;" style="text;html=1;resizable=0;autosize=1;align=center;verticalAlign=middle;points=[];fillColor=none;strokeColor=none;rounded=0;shadow=0;labelBackgroundColor=none;sketch=0;" vertex="1" parent="PeCHgGS-uUAK1-k6KW_p-1">
          <mxGeometry x="280" y="220" width="60" height="20" as="geometry" />
        </mxCell>
        <mxCell id="PeCHgGS-uUAK1-k6KW_p-45" value="&lt;span style=&quot;font-size: 10px&quot;&gt;70000000&lt;/span&gt;" style="text;html=1;resizable=0;autosize=1;align=center;verticalAlign=middle;points=[];fillColor=none;strokeColor=none;rounded=0;shadow=0;labelBackgroundColor=none;sketch=0;" vertex="1" parent="PeCHgGS-uUAK1-k6KW_p-1">
          <mxGeometry x="280" y="230" width="60" height="20" as="geometry" />
        </mxCell>
        <mxCell id="PeCHgGS-uUAK1-k6KW_p-46" value="" style="html=1;shadow=0;dashed=0;align=center;verticalAlign=middle;shape=mxgraph.arrows2.arrow;dy=0.59;dx=30.33;notch=0;labelBackgroundColor=none;sketch=0;gradientColor=none;" vertex="1" parent="PeCHgGS-uUAK1-k6KW_p-1">
          <mxGeometry x="470" y="165" width="50" height="30" as="geometry" />
        </mxCell>
        <mxCell id="PeCHgGS-uUAK1-k6KW_p-47" value="&lt;font style=&quot;font-size: 12px&quot; color=&quot;#3399ff&quot;&gt;max_staticmem_list[0] = 1&lt;/font&gt;" style="text;html=1;align=center;verticalAlign=middle;resizable=0;points=[];autosize=1;" vertex="1" parent="PeCHgGS-uUAK1-k6KW_p-1">
          <mxGeometry x="60" y="260" width="150" height="20" as="geometry" />
        </mxCell>
        <mxCell id="PeCHgGS-uUAK1-k6KW_p-49" value="" style="verticalLabelPosition=bottom;verticalAlign=top;html=1;shape=mxgraph.basic.patternFillRect;fillStyle=diagRev;step=5;fillStrokeWidth=0.2;fillStrokeColor=#dddddd;shadow=0;labelBackgroundColor=none;sketch=0;fillColor=#dae8fc;strokeColor=#6c8ebf;" vertex="1" parent="PeCHgGS-uUAK1-k6KW_p-1">
          <mxGeometry x="340" y="230" width="120" height="10" as="geometry" />
        </mxCell>
        <mxCell id="PeCHgGS-uUAK1-k6KW_p-50" value="" style="verticalLabelPosition=bottom;verticalAlign=top;html=1;shape=mxgraph.basic.patternFillRect;fillStyle=diag;step=5;fillStrokeWidth=0.2;fillStrokeColor=#dddddd;shadow=0;labelBackgroundColor=none;sketch=0;gradientColor=none;" vertex="1" parent="PeCHgGS-uUAK1-k6KW_p-1">
          <mxGeometry x="590" y="170" width="120" height="30" as="geometry" />
        </mxCell>
        <mxCell id="PeCHgGS-uUAK1-k6KW_p-51" value="&lt;span style=&quot;font-size: 10px&quot;&gt;40000000&lt;/span&gt;" style="text;html=1;resizable=0;autosize=1;align=center;verticalAlign=middle;points=[];fillColor=none;strokeColor=none;rounded=0;shadow=0;labelBackgroundColor=none;sketch=0;" vertex="1" parent="PeCHgGS-uUAK1-k6KW_p-1">
          <mxGeometry x="530" y="190" width="60" height="20" as="geometry" />
        </mxCell>
        <mxCell id="PeCHgGS-uUAK1-k6KW_p-52" value="&lt;span style=&quot;font-size: 10px&quot;&gt;70000000&lt;/span&gt;" style="text;html=1;resizable=0;autosize=1;align=center;verticalAlign=middle;points=[];fillColor=none;strokeColor=none;rounded=0;shadow=0;labelBackgroundColor=none;sketch=0;" vertex="1" parent="PeCHgGS-uUAK1-k6KW_p-1">
          <mxGeometry x="530" y="160" width="60" height="20" as="geometry" />
        </mxCell>
        <mxCell id="PeCHgGS-uUAK1-k6KW_p-53" value="&lt;font style=&quot;font-size: 12px&quot; color=&quot;#3399ff&quot;&gt;max_staticmem_list[0] = 1&lt;/font&gt;" style="text;html=1;align=center;verticalAlign=middle;resizable=0;points=[];autosize=1;" vertex="1" parent="PeCHgGS-uUAK1-k6KW_p-1">
          <mxGeometry x="560" y="270" width="150" height="20" as="geometry" />
        </mxCell>
        <mxCell id="PeCHgGS-uUAK1-k6KW_p-54" value="&lt;font style=&quot;font-size: 12px&quot; color=&quot;#3399ff&quot;&gt;max_staticmem_list[1] = 2&lt;/font&gt;" style="text;html=1;align=center;verticalAlign=middle;resizable=0;points=[];autosize=1;" vertex="1" parent="PeCHgGS-uUAK1-k6KW_p-1">
          <mxGeometry x="560" y="290" width="150" height="20" as="geometry" />
        </mxCell>
      </root>
    </mxGraphModel>
  </diagram>
  <diagram id="DMnxQpO4LYC7c7EiCN8E" name="Page-5">
    <mxGraphModel dx="539" dy="262" grid="1" gridSize="10" guides="1" tooltips="1" connect="1" arrows="1" fold="1" page="1" pageScale="1" pageWidth="850" pageHeight="1100" math="0" shadow="0">
      <root>
        <mxCell id="_InT-K8Ct3OmQfCsfsNm-0" />
        <mxCell id="_InT-K8Ct3OmQfCsfsNm-1" parent="_InT-K8Ct3OmQfCsfsNm-0" />
        <mxCell id="AErT8FfxGbEmEIQnMbxX-2" value="" style="verticalLabelPosition=bottom;verticalAlign=top;html=1;shape=mxgraph.basic.patternFillRect;fillStyle=diag;step=5;fillStrokeWidth=0.2;fillStrokeColor=#dddddd;shadow=0;labelBackgroundColor=none;sketch=0;gradientColor=none;" vertex="1" parent="_InT-K8Ct3OmQfCsfsNm-1">
          <mxGeometry x="100" y="135" width="120" height="30" as="geometry" />
        </mxCell>
        <mxCell id="AErT8FfxGbEmEIQnMbxX-3" value="&lt;span style=&quot;font-size: 10px&quot;&gt;00000000&lt;/span&gt;" style="text;html=1;resizable=0;autosize=1;align=center;verticalAlign=middle;points=[];fillColor=none;strokeColor=none;rounded=0;shadow=0;labelBackgroundColor=none;sketch=0;" vertex="1" parent="_InT-K8Ct3OmQfCsfsNm-1">
          <mxGeometry x="40" y="207.5" width="60" height="20" as="geometry" />
        </mxCell>
        <mxCell id="AErT8FfxGbEmEIQnMbxX-4" value="&lt;span style=&quot;font-size: 10px&quot;&gt;20000000&lt;/span&gt;" style="text;html=1;resizable=0;autosize=1;align=center;verticalAlign=middle;points=[];fillColor=none;strokeColor=none;rounded=0;shadow=0;labelBackgroundColor=none;sketch=0;" vertex="1" parent="_InT-K8Ct3OmQfCsfsNm-1">
          <mxGeometry x="40" y="187.5" width="60" height="20" as="geometry" />
        </mxCell>
        <mxCell id="AErT8FfxGbEmEIQnMbxX-7" value="&lt;span style=&quot;font-size: 10px&quot;&gt;90000000&lt;/span&gt;" style="text;html=1;resizable=0;autosize=1;align=center;verticalAlign=middle;points=[];fillColor=none;strokeColor=none;rounded=0;shadow=0;labelBackgroundColor=none;sketch=0;" vertex="1" parent="_InT-K8Ct3OmQfCsfsNm-1">
          <mxGeometry x="40" y="155" width="60" height="20" as="geometry" />
        </mxCell>
        <mxCell id="AErT8FfxGbEmEIQnMbxX-8" value="&lt;span style=&quot;font-size: 10px&quot;&gt;C0000000&lt;/span&gt;" style="text;html=1;resizable=0;autosize=1;align=center;verticalAlign=middle;points=[];fillColor=none;strokeColor=none;rounded=0;shadow=0;labelBackgroundColor=none;sketch=0;" vertex="1" parent="_InT-K8Ct3OmQfCsfsNm-1">
          <mxGeometry x="40" y="125" width="60" height="20" as="geometry" />
        </mxCell>
        <mxCell id="AErT8FfxGbEmEIQnMbxX-9" value="&lt;font style=&quot;font-size: 10px&quot;&gt;staticmem_region_list[0]&lt;/font&gt;" style="text;html=1;align=center;verticalAlign=middle;resizable=0;points=[];autosize=1;" vertex="1" parent="_InT-K8Ct3OmQfCsfsNm-1">
          <mxGeometry x="100" y="217.5" width="120" height="20" as="geometry" />
        </mxCell>
        <mxCell id="AErT8FfxGbEmEIQnMbxX-11" value="&lt;font style=&quot;font-size: 10px&quot;&gt;staticmem_region_list[1]&lt;/font&gt;" style="text;html=1;align=center;verticalAlign=middle;resizable=0;points=[];autosize=1;" vertex="1" parent="_InT-K8Ct3OmQfCsfsNm-1">
          <mxGeometry x="100" y="165" width="120" height="20" as="geometry" />
        </mxCell>
        <mxCell id="AErT8FfxGbEmEIQnMbxX-12" value="" style="html=1;shadow=0;dashed=0;align=center;verticalAlign=middle;shape=mxgraph.arrows2.arrow;dy=0.59;dx=30.33;notch=0;labelBackgroundColor=none;sketch=0;gradientColor=none;" vertex="1" parent="_InT-K8Ct3OmQfCsfsNm-1">
          <mxGeometry x="230" y="165" width="50" height="30" as="geometry" />
        </mxCell>
        <mxCell id="AErT8FfxGbEmEIQnMbxX-19" value="" style="verticalLabelPosition=bottom;verticalAlign=top;html=1;shape=mxgraph.basic.patternFillRect;fillStyle=diag;step=5;fillStrokeWidth=0.2;fillStrokeColor=#dddddd;shadow=0;labelBackgroundColor=none;sketch=0;gradientColor=none;" vertex="1" parent="_InT-K8Ct3OmQfCsfsNm-1">
          <mxGeometry x="100" y="197.5" width="120" height="20" as="geometry" />
        </mxCell>
        <mxCell id="AErT8FfxGbEmEIQnMbxX-22" value="" style="verticalLabelPosition=bottom;verticalAlign=top;html=1;shape=mxgraph.basic.patternFillRect;fillStyle=diag;step=5;fillStrokeWidth=0.2;fillStrokeColor=#dddddd;shadow=0;labelBackgroundColor=none;sketch=0;gradientColor=none;" vertex="1" parent="_InT-K8Ct3OmQfCsfsNm-1">
          <mxGeometry x="580" y="120" width="120" height="30" as="geometry" />
        </mxCell>
        <mxCell id="AErT8FfxGbEmEIQnMbxX-23" value="&lt;span style=&quot;font-size: 10px&quot;&gt;00000000&lt;/span&gt;" style="text;html=1;resizable=0;autosize=1;align=center;verticalAlign=middle;points=[];fillColor=none;strokeColor=none;rounded=0;shadow=0;labelBackgroundColor=none;sketch=0;" vertex="1" parent="_InT-K8Ct3OmQfCsfsNm-1">
          <mxGeometry x="520" y="207.5" width="60" height="20" as="geometry" />
        </mxCell>
        <mxCell id="AErT8FfxGbEmEIQnMbxX-24" value="&lt;span style=&quot;font-size: 10px&quot;&gt;20000000&lt;/span&gt;" style="text;html=1;resizable=0;autosize=1;align=center;verticalAlign=middle;points=[];fillColor=none;strokeColor=none;rounded=0;shadow=0;labelBackgroundColor=none;sketch=0;" vertex="1" parent="_InT-K8Ct3OmQfCsfsNm-1">
          <mxGeometry x="520" y="187.5" width="60" height="20" as="geometry" />
        </mxCell>
        <mxCell id="AErT8FfxGbEmEIQnMbxX-27" value="&lt;span style=&quot;font-size: 10px&quot;&gt;C0000000&lt;/span&gt;" style="text;html=1;resizable=0;autosize=1;align=center;verticalAlign=middle;points=[];fillColor=none;strokeColor=none;rounded=0;shadow=0;labelBackgroundColor=none;sketch=0;" vertex="1" parent="_InT-K8Ct3OmQfCsfsNm-1">
          <mxGeometry x="520" y="110" width="60" height="20" as="geometry" />
        </mxCell>
        <mxCell id="AErT8FfxGbEmEIQnMbxX-28" value="&lt;font style=&quot;font-size: 10px&quot;&gt;staticmem_region_list[0]&lt;/font&gt;" style="text;html=1;align=center;verticalAlign=middle;resizable=0;points=[];autosize=1;" vertex="1" parent="_InT-K8Ct3OmQfCsfsNm-1">
          <mxGeometry x="580" y="217.5" width="120" height="20" as="geometry" />
        </mxCell>
        <mxCell id="AErT8FfxGbEmEIQnMbxX-30" value="&lt;font style=&quot;font-size: 10px&quot;&gt;staticmem_region_list[1]&lt;/font&gt;" style="text;html=1;align=center;verticalAlign=middle;resizable=0;points=[];autosize=1;" vertex="1" parent="_InT-K8Ct3OmQfCsfsNm-1">
          <mxGeometry x="580" y="170" width="120" height="20" as="geometry" />
        </mxCell>
        <mxCell id="AErT8FfxGbEmEIQnMbxX-31" value="" style="verticalLabelPosition=bottom;verticalAlign=top;html=1;shape=mxgraph.basic.patternFillRect;fillStyle=diag;step=5;fillStrokeWidth=0.2;fillStrokeColor=#dddddd;shadow=0;labelBackgroundColor=none;sketch=0;gradientColor=none;" vertex="1" parent="_InT-K8Ct3OmQfCsfsNm-1">
          <mxGeometry x="580" y="197.5" width="120" height="20" as="geometry" />
        </mxCell>
        <mxCell id="AErT8FfxGbEmEIQnMbxX-41" value="" style="verticalLabelPosition=bottom;verticalAlign=top;html=1;shape=mxgraph.basic.patternFillRect;fillStyle=diagRev;step=5;fillStrokeWidth=0.2;fillStrokeColor=#dddddd;shadow=0;labelBackgroundColor=none;sketch=0;fillColor=#dae8fc;strokeColor=#6c8ebf;" vertex="1" parent="_InT-K8Ct3OmQfCsfsNm-1">
          <mxGeometry x="340" y="170" width="120" height="20" as="geometry" />
        </mxCell>
        <mxCell id="AErT8FfxGbEmEIQnMbxX-42" value="&lt;span style=&quot;font-size: 10px&quot;&gt;90000000&lt;/span&gt;" style="text;html=1;resizable=0;autosize=1;align=center;verticalAlign=middle;points=[];fillColor=none;strokeColor=none;rounded=0;shadow=0;labelBackgroundColor=none;sketch=0;" vertex="1" parent="_InT-K8Ct3OmQfCsfsNm-1">
          <mxGeometry x="280" y="157.5" width="60" height="20" as="geometry" />
        </mxCell>
        <mxCell id="AErT8FfxGbEmEIQnMbxX-43" value="&lt;span style=&quot;font-size: 10px&quot;&gt;70000000&lt;/span&gt;" style="text;html=1;resizable=0;autosize=1;align=center;verticalAlign=middle;points=[];fillColor=none;strokeColor=none;rounded=0;shadow=0;labelBackgroundColor=none;sketch=0;" vertex="1" parent="_InT-K8Ct3OmQfCsfsNm-1">
          <mxGeometry x="280" y="182.5" width="60" height="20" as="geometry" />
        </mxCell>
        <mxCell id="AErT8FfxGbEmEIQnMbxX-44" value="" style="html=1;shadow=0;dashed=0;align=center;verticalAlign=middle;shape=mxgraph.arrows2.arrow;dy=0.59;dx=30.33;notch=0;labelBackgroundColor=none;sketch=0;gradientColor=none;" vertex="1" parent="_InT-K8Ct3OmQfCsfsNm-1">
          <mxGeometry x="470" y="165" width="50" height="30" as="geometry" />
        </mxCell>
        <mxCell id="AErT8FfxGbEmEIQnMbxX-45" value="" style="verticalLabelPosition=bottom;verticalAlign=top;html=1;shape=mxgraph.basic.patternFillRect;fillStyle=diagRev;step=5;fillStrokeWidth=0.2;fillStrokeColor=#dddddd;shadow=0;labelBackgroundColor=none;sketch=0;fillColor=#dae8fc;strokeColor=#6c8ebf;" vertex="1" parent="_InT-K8Ct3OmQfCsfsNm-1">
          <mxGeometry x="580" y="150" width="120" height="20" as="geometry" />
        </mxCell>
        <mxCell id="AErT8FfxGbEmEIQnMbxX-46" value="&lt;span style=&quot;font-size: 10px&quot;&gt;70000000&lt;/span&gt;" style="text;html=1;resizable=0;autosize=1;align=center;verticalAlign=middle;points=[];fillColor=none;strokeColor=none;rounded=0;shadow=0;labelBackgroundColor=none;sketch=0;" vertex="1" parent="_InT-K8Ct3OmQfCsfsNm-1">
          <mxGeometry x="520" y="160" width="60" height="20" as="geometry" />
        </mxCell>
        <mxCell id="AErT8FfxGbEmEIQnMbxX-58" value="" style="verticalLabelPosition=bottom;verticalAlign=top;html=1;shape=mxgraph.basic.patternFillRect;fillStyle=diag;step=5;fillStrokeWidth=0.2;fillStrokeColor=#dddddd;shadow=0;labelBackgroundColor=none;sketch=0;gradientColor=none;" vertex="1" parent="_InT-K8Ct3OmQfCsfsNm-1">
          <mxGeometry x="100" y="265" width="120" height="30" as="geometry" />
        </mxCell>
        <mxCell id="AErT8FfxGbEmEIQnMbxX-59" value="&lt;span style=&quot;font-size: 10px&quot;&gt;00000000&lt;/span&gt;" style="text;html=1;resizable=0;autosize=1;align=center;verticalAlign=middle;points=[];fillColor=none;strokeColor=none;rounded=0;shadow=0;labelBackgroundColor=none;sketch=0;" vertex="1" parent="_InT-K8Ct3OmQfCsfsNm-1">
          <mxGeometry x="40" y="337.5" width="60" height="20" as="geometry" />
        </mxCell>
        <mxCell id="AErT8FfxGbEmEIQnMbxX-60" value="&lt;span style=&quot;font-size: 10px&quot;&gt;20000000&lt;/span&gt;" style="text;html=1;resizable=0;autosize=1;align=center;verticalAlign=middle;points=[];fillColor=none;strokeColor=none;rounded=0;shadow=0;labelBackgroundColor=none;sketch=0;" vertex="1" parent="_InT-K8Ct3OmQfCsfsNm-1">
          <mxGeometry x="40" y="317.5" width="60" height="20" as="geometry" />
        </mxCell>
        <mxCell id="AErT8FfxGbEmEIQnMbxX-61" value="&lt;span style=&quot;font-size: 10px&quot;&gt;90000000&lt;/span&gt;" style="text;html=1;resizable=0;autosize=1;align=center;verticalAlign=middle;points=[];fillColor=none;strokeColor=none;rounded=0;shadow=0;labelBackgroundColor=none;sketch=0;" vertex="1" parent="_InT-K8Ct3OmQfCsfsNm-1">
          <mxGeometry x="40" y="285" width="60" height="20" as="geometry" />
        </mxCell>
        <mxCell id="AErT8FfxGbEmEIQnMbxX-62" value="&lt;span style=&quot;font-size: 10px&quot;&gt;C0000000&lt;/span&gt;" style="text;html=1;resizable=0;autosize=1;align=center;verticalAlign=middle;points=[];fillColor=none;strokeColor=none;rounded=0;shadow=0;labelBackgroundColor=none;sketch=0;" vertex="1" parent="_InT-K8Ct3OmQfCsfsNm-1">
          <mxGeometry x="40" y="255" width="60" height="20" as="geometry" />
        </mxCell>
        <mxCell id="AErT8FfxGbEmEIQnMbxX-63" value="&lt;font style=&quot;font-size: 10px&quot;&gt;staticmem_region_list[0]&lt;/font&gt;" style="text;html=1;align=center;verticalAlign=middle;resizable=0;points=[];autosize=1;" vertex="1" parent="_InT-K8Ct3OmQfCsfsNm-1">
          <mxGeometry x="100" y="347.5" width="120" height="20" as="geometry" />
        </mxCell>
        <mxCell id="AErT8FfxGbEmEIQnMbxX-64" value="&lt;font style=&quot;font-size: 10px&quot;&gt;staticmem_region_list[1]&lt;/font&gt;" style="text;html=1;align=center;verticalAlign=middle;resizable=0;points=[];autosize=1;" vertex="1" parent="_InT-K8Ct3OmQfCsfsNm-1">
          <mxGeometry x="100" y="295" width="120" height="20" as="geometry" />
        </mxCell>
        <mxCell id="AErT8FfxGbEmEIQnMbxX-65" value="" style="html=1;shadow=0;dashed=0;align=center;verticalAlign=middle;shape=mxgraph.arrows2.arrow;dy=0.59;dx=30.33;notch=0;labelBackgroundColor=none;sketch=0;gradientColor=none;" vertex="1" parent="_InT-K8Ct3OmQfCsfsNm-1">
          <mxGeometry x="230" y="295" width="50" height="30" as="geometry" />
        </mxCell>
        <mxCell id="AErT8FfxGbEmEIQnMbxX-66" value="" style="verticalLabelPosition=bottom;verticalAlign=top;html=1;shape=mxgraph.basic.patternFillRect;fillStyle=diag;step=5;fillStrokeWidth=0.2;fillStrokeColor=#dddddd;shadow=0;labelBackgroundColor=none;sketch=0;gradientColor=none;" vertex="1" parent="_InT-K8Ct3OmQfCsfsNm-1">
          <mxGeometry x="100" y="327.5" width="120" height="20" as="geometry" />
        </mxCell>
        <mxCell id="AErT8FfxGbEmEIQnMbxX-67" value="" style="verticalLabelPosition=bottom;verticalAlign=top;html=1;shape=mxgraph.basic.patternFillRect;fillStyle=diag;step=5;fillStrokeWidth=0.2;fillStrokeColor=#dddddd;shadow=0;labelBackgroundColor=none;sketch=0;gradientColor=none;" vertex="1" parent="_InT-K8Ct3OmQfCsfsNm-1">
          <mxGeometry x="580" y="250" width="120" height="30" as="geometry" />
        </mxCell>
        <mxCell id="AErT8FfxGbEmEIQnMbxX-68" value="&lt;span style=&quot;font-size: 10px&quot;&gt;00000000&lt;/span&gt;" style="text;html=1;resizable=0;autosize=1;align=center;verticalAlign=middle;points=[];fillColor=none;strokeColor=none;rounded=0;shadow=0;labelBackgroundColor=none;sketch=0;" vertex="1" parent="_InT-K8Ct3OmQfCsfsNm-1">
          <mxGeometry x="520" y="337.5" width="60" height="20" as="geometry" />
        </mxCell>
        <mxCell id="AErT8FfxGbEmEIQnMbxX-70" value="&lt;span style=&quot;font-size: 10px&quot;&gt;90000000&lt;/span&gt;" style="text;html=1;resizable=0;autosize=1;align=center;verticalAlign=middle;points=[];fillColor=none;strokeColor=none;rounded=0;shadow=0;labelBackgroundColor=none;sketch=0;" vertex="1" parent="_InT-K8Ct3OmQfCsfsNm-1">
          <mxGeometry x="520" y="270" width="60" height="20" as="geometry" />
        </mxCell>
        <mxCell id="AErT8FfxGbEmEIQnMbxX-71" value="&lt;span style=&quot;font-size: 10px&quot;&gt;C0000000&lt;/span&gt;" style="text;html=1;resizable=0;autosize=1;align=center;verticalAlign=middle;points=[];fillColor=none;strokeColor=none;rounded=0;shadow=0;labelBackgroundColor=none;sketch=0;" vertex="1" parent="_InT-K8Ct3OmQfCsfsNm-1">
          <mxGeometry x="520" y="240" width="60" height="20" as="geometry" />
        </mxCell>
        <mxCell id="AErT8FfxGbEmEIQnMbxX-72" value="&lt;font style=&quot;font-size: 10px&quot;&gt;staticmem_region_list[0]&lt;/font&gt;" style="text;html=1;align=center;verticalAlign=middle;resizable=0;points=[];autosize=1;" vertex="1" parent="_InT-K8Ct3OmQfCsfsNm-1">
          <mxGeometry x="580" y="347.5" width="120" height="20" as="geometry" />
        </mxCell>
        <mxCell id="AErT8FfxGbEmEIQnMbxX-73" value="&lt;font style=&quot;font-size: 10px&quot;&gt;staticmem_region_list[1]&lt;/font&gt;" style="text;html=1;align=center;verticalAlign=middle;resizable=0;points=[];autosize=1;" vertex="1" parent="_InT-K8Ct3OmQfCsfsNm-1">
          <mxGeometry x="580" y="280" width="120" height="20" as="geometry" />
        </mxCell>
        <mxCell id="AErT8FfxGbEmEIQnMbxX-74" value="" style="verticalLabelPosition=bottom;verticalAlign=top;html=1;shape=mxgraph.basic.patternFillRect;fillStyle=diag;step=5;fillStrokeWidth=0.2;fillStrokeColor=#dddddd;shadow=0;labelBackgroundColor=none;sketch=0;gradientColor=none;" vertex="1" parent="_InT-K8Ct3OmQfCsfsNm-1">
          <mxGeometry x="580" y="327.5" width="120" height="20" as="geometry" />
        </mxCell>
        <mxCell id="AErT8FfxGbEmEIQnMbxX-75" value="" style="verticalLabelPosition=bottom;verticalAlign=top;html=1;shape=mxgraph.basic.patternFillRect;fillStyle=diagRev;step=5;fillStrokeWidth=0.2;fillStrokeColor=#dddddd;shadow=0;labelBackgroundColor=none;sketch=0;fillColor=#dae8fc;strokeColor=#6c8ebf;" vertex="1" parent="_InT-K8Ct3OmQfCsfsNm-1">
          <mxGeometry x="340" y="300" width="120" height="20" as="geometry" />
        </mxCell>
        <mxCell id="AErT8FfxGbEmEIQnMbxX-76" value="&lt;span style=&quot;font-size: 10px&quot;&gt;40000000&lt;/span&gt;" style="text;html=1;resizable=0;autosize=1;align=center;verticalAlign=middle;points=[];fillColor=none;strokeColor=none;rounded=0;shadow=0;labelBackgroundColor=none;sketch=0;" vertex="1" parent="_InT-K8Ct3OmQfCsfsNm-1">
          <mxGeometry x="280" y="287.5" width="60" height="20" as="geometry" />
        </mxCell>
        <mxCell id="AErT8FfxGbEmEIQnMbxX-77" value="&lt;span style=&quot;font-size: 10px&quot;&gt;20000000&lt;/span&gt;" style="text;html=1;resizable=0;autosize=1;align=center;verticalAlign=middle;points=[];fillColor=none;strokeColor=none;rounded=0;shadow=0;labelBackgroundColor=none;sketch=0;" vertex="1" parent="_InT-K8Ct3OmQfCsfsNm-1">
          <mxGeometry x="280" y="312.5" width="60" height="20" as="geometry" />
        </mxCell>
        <mxCell id="AErT8FfxGbEmEIQnMbxX-78" value="" style="html=1;shadow=0;dashed=0;align=center;verticalAlign=middle;shape=mxgraph.arrows2.arrow;dy=0.59;dx=30.33;notch=0;labelBackgroundColor=none;sketch=0;gradientColor=none;" vertex="1" parent="_InT-K8Ct3OmQfCsfsNm-1">
          <mxGeometry x="470" y="295" width="50" height="30" as="geometry" />
        </mxCell>
        <mxCell id="AErT8FfxGbEmEIQnMbxX-79" value="" style="verticalLabelPosition=bottom;verticalAlign=top;html=1;shape=mxgraph.basic.patternFillRect;fillStyle=diagRev;step=5;fillStrokeWidth=0.2;fillStrokeColor=#dddddd;shadow=0;labelBackgroundColor=none;sketch=0;fillColor=#dae8fc;strokeColor=#6c8ebf;" vertex="1" parent="_InT-K8Ct3OmQfCsfsNm-1">
          <mxGeometry x="580" y="307.5" width="120" height="20" as="geometry" />
        </mxCell>
        <mxCell id="AErT8FfxGbEmEIQnMbxX-80" value="&lt;span style=&quot;font-size: 10px&quot;&gt;40000000&lt;/span&gt;" style="text;html=1;resizable=0;autosize=1;align=center;verticalAlign=middle;points=[];fillColor=none;strokeColor=none;rounded=0;shadow=0;labelBackgroundColor=none;sketch=0;" vertex="1" parent="_InT-K8Ct3OmQfCsfsNm-1">
          <mxGeometry x="520" y="297.5" width="60" height="20" as="geometry" />
        </mxCell>
        <mxCell id="AErT8FfxGbEmEIQnMbxX-82" value="" style="verticalLabelPosition=bottom;verticalAlign=top;html=1;shape=mxgraph.basic.patternFillRect;fillStyle=diag;step=5;fillStrokeWidth=0.2;fillStrokeColor=#dddddd;shadow=0;labelBackgroundColor=none;sketch=0;gradientColor=none;" vertex="1" parent="_InT-K8Ct3OmQfCsfsNm-1">
          <mxGeometry x="100" y="392.5" width="120" height="30" as="geometry" />
        </mxCell>
        <mxCell id="AErT8FfxGbEmEIQnMbxX-83" value="&lt;span style=&quot;font-size: 10px&quot;&gt;00000000&lt;/span&gt;" style="text;html=1;resizable=0;autosize=1;align=center;verticalAlign=middle;points=[];fillColor=none;strokeColor=none;rounded=0;shadow=0;labelBackgroundColor=none;sketch=0;" vertex="1" parent="_InT-K8Ct3OmQfCsfsNm-1">
          <mxGeometry x="40" y="465" width="60" height="20" as="geometry" />
        </mxCell>
        <mxCell id="AErT8FfxGbEmEIQnMbxX-84" value="&lt;span style=&quot;font-size: 10px&quot;&gt;20000000&lt;/span&gt;" style="text;html=1;resizable=0;autosize=1;align=center;verticalAlign=middle;points=[];fillColor=none;strokeColor=none;rounded=0;shadow=0;labelBackgroundColor=none;sketch=0;" vertex="1" parent="_InT-K8Ct3OmQfCsfsNm-1">
          <mxGeometry x="40" y="445" width="60" height="20" as="geometry" />
        </mxCell>
        <mxCell id="AErT8FfxGbEmEIQnMbxX-85" value="&lt;span style=&quot;font-size: 10px&quot;&gt;90000000&lt;/span&gt;" style="text;html=1;resizable=0;autosize=1;align=center;verticalAlign=middle;points=[];fillColor=none;strokeColor=none;rounded=0;shadow=0;labelBackgroundColor=none;sketch=0;" vertex="1" parent="_InT-K8Ct3OmQfCsfsNm-1">
          <mxGeometry x="40" y="412.5" width="60" height="20" as="geometry" />
        </mxCell>
        <mxCell id="AErT8FfxGbEmEIQnMbxX-86" value="&lt;span style=&quot;font-size: 10px&quot;&gt;C0000000&lt;/span&gt;" style="text;html=1;resizable=0;autosize=1;align=center;verticalAlign=middle;points=[];fillColor=none;strokeColor=none;rounded=0;shadow=0;labelBackgroundColor=none;sketch=0;" vertex="1" parent="_InT-K8Ct3OmQfCsfsNm-1">
          <mxGeometry x="40" y="382.5" width="60" height="20" as="geometry" />
        </mxCell>
        <mxCell id="AErT8FfxGbEmEIQnMbxX-87" value="&lt;font style=&quot;font-size: 10px&quot;&gt;staticmem_region_list[0]&lt;/font&gt;" style="text;html=1;align=center;verticalAlign=middle;resizable=0;points=[];autosize=1;" vertex="1" parent="_InT-K8Ct3OmQfCsfsNm-1">
          <mxGeometry x="100" y="475" width="120" height="20" as="geometry" />
        </mxCell>
        <mxCell id="AErT8FfxGbEmEIQnMbxX-88" value="&lt;font style=&quot;font-size: 10px&quot;&gt;staticmem_region_list[1]&lt;/font&gt;" style="text;html=1;align=center;verticalAlign=middle;resizable=0;points=[];autosize=1;" vertex="1" parent="_InT-K8Ct3OmQfCsfsNm-1">
          <mxGeometry x="100" y="422.5" width="120" height="20" as="geometry" />
        </mxCell>
        <mxCell id="AErT8FfxGbEmEIQnMbxX-89" value="" style="html=1;shadow=0;dashed=0;align=center;verticalAlign=middle;shape=mxgraph.arrows2.arrow;dy=0.59;dx=30.33;notch=0;labelBackgroundColor=none;sketch=0;gradientColor=none;" vertex="1" parent="_InT-K8Ct3OmQfCsfsNm-1">
          <mxGeometry x="230" y="422.5" width="50" height="30" as="geometry" />
        </mxCell>
        <mxCell id="AErT8FfxGbEmEIQnMbxX-90" value="" style="verticalLabelPosition=bottom;verticalAlign=top;html=1;shape=mxgraph.basic.patternFillRect;fillStyle=diag;step=5;fillStrokeWidth=0.2;fillStrokeColor=#dddddd;shadow=0;labelBackgroundColor=none;sketch=0;gradientColor=none;" vertex="1" parent="_InT-K8Ct3OmQfCsfsNm-1">
          <mxGeometry x="100" y="455" width="120" height="20" as="geometry" />
        </mxCell>
        <mxCell id="AErT8FfxGbEmEIQnMbxX-91" value="" style="verticalLabelPosition=bottom;verticalAlign=top;html=1;shape=mxgraph.basic.patternFillRect;fillStyle=diag;step=5;fillStrokeWidth=0.2;fillStrokeColor=#dddddd;shadow=0;labelBackgroundColor=none;sketch=0;gradientColor=none;" vertex="1" parent="_InT-K8Ct3OmQfCsfsNm-1">
          <mxGeometry x="580" y="377.5" width="120" height="32.5" as="geometry" />
        </mxCell>
        <mxCell id="AErT8FfxGbEmEIQnMbxX-92" value="&lt;span style=&quot;font-size: 10px&quot;&gt;00000000&lt;/span&gt;" style="text;html=1;resizable=0;autosize=1;align=center;verticalAlign=middle;points=[];fillColor=none;strokeColor=none;rounded=0;shadow=0;labelBackgroundColor=none;sketch=0;" vertex="1" parent="_InT-K8Ct3OmQfCsfsNm-1">
          <mxGeometry x="520" y="465" width="60" height="20" as="geometry" />
        </mxCell>
        <mxCell id="AErT8FfxGbEmEIQnMbxX-94" value="&lt;span style=&quot;font-size: 10px&quot;&gt;C0000000&lt;/span&gt;" style="text;html=1;resizable=0;autosize=1;align=center;verticalAlign=middle;points=[];fillColor=none;strokeColor=none;rounded=0;shadow=0;labelBackgroundColor=none;sketch=0;" vertex="1" parent="_InT-K8Ct3OmQfCsfsNm-1">
          <mxGeometry x="520" y="367.5" width="60" height="20" as="geometry" />
        </mxCell>
        <mxCell id="AErT8FfxGbEmEIQnMbxX-95" value="&lt;font style=&quot;font-size: 10px&quot;&gt;staticmem_region_list[0]&lt;/font&gt;" style="text;html=1;align=center;verticalAlign=middle;resizable=0;points=[];autosize=1;" vertex="1" parent="_InT-K8Ct3OmQfCsfsNm-1">
          <mxGeometry x="580" y="475" width="120" height="20" as="geometry" />
        </mxCell>
        <mxCell id="AErT8FfxGbEmEIQnMbxX-97" value="" style="verticalLabelPosition=bottom;verticalAlign=top;html=1;shape=mxgraph.basic.patternFillRect;fillStyle=diag;step=5;fillStrokeWidth=0.2;fillStrokeColor=#dddddd;shadow=0;labelBackgroundColor=none;sketch=0;gradientColor=none;" vertex="1" parent="_InT-K8Ct3OmQfCsfsNm-1">
          <mxGeometry x="580" y="455" width="120" height="20" as="geometry" />
        </mxCell>
        <mxCell id="AErT8FfxGbEmEIQnMbxX-98" value="" style="verticalLabelPosition=bottom;verticalAlign=top;html=1;shape=mxgraph.basic.patternFillRect;fillStyle=diagRev;step=5;fillStrokeWidth=0.2;fillStrokeColor=#dddddd;shadow=0;labelBackgroundColor=none;sketch=0;fillColor=#dae8fc;strokeColor=#6c8ebf;" vertex="1" parent="_InT-K8Ct3OmQfCsfsNm-1">
          <mxGeometry x="340" y="427.5" width="120" height="20" as="geometry" />
        </mxCell>
        <mxCell id="AErT8FfxGbEmEIQnMbxX-99" value="&lt;span style=&quot;font-size: 10px&quot;&gt;90000000&lt;/span&gt;" style="text;html=1;resizable=0;autosize=1;align=center;verticalAlign=middle;points=[];fillColor=none;strokeColor=none;rounded=0;shadow=0;labelBackgroundColor=none;sketch=0;" vertex="1" parent="_InT-K8Ct3OmQfCsfsNm-1">
          <mxGeometry x="280" y="415" width="60" height="20" as="geometry" />
        </mxCell>
        <mxCell id="AErT8FfxGbEmEIQnMbxX-100" value="&lt;span style=&quot;font-size: 10px&quot;&gt;20000000&lt;/span&gt;" style="text;html=1;resizable=0;autosize=1;align=center;verticalAlign=middle;points=[];fillColor=none;strokeColor=none;rounded=0;shadow=0;labelBackgroundColor=none;sketch=0;" vertex="1" parent="_InT-K8Ct3OmQfCsfsNm-1">
          <mxGeometry x="280" y="440" width="60" height="20" as="geometry" />
        </mxCell>
        <mxCell id="AErT8FfxGbEmEIQnMbxX-101" value="" style="html=1;shadow=0;dashed=0;align=center;verticalAlign=middle;shape=mxgraph.arrows2.arrow;dy=0.59;dx=30.33;notch=0;labelBackgroundColor=none;sketch=0;gradientColor=none;" vertex="1" parent="_InT-K8Ct3OmQfCsfsNm-1">
          <mxGeometry x="470" y="422.5" width="50" height="30" as="geometry" />
        </mxCell>
        <mxCell id="AErT8FfxGbEmEIQnMbxX-102" value="" style="verticalLabelPosition=bottom;verticalAlign=top;html=1;shape=mxgraph.basic.patternFillRect;fillStyle=diagRev;step=5;fillStrokeWidth=0.2;fillStrokeColor=#dddddd;shadow=0;labelBackgroundColor=none;sketch=0;fillColor=#dae8fc;strokeColor=#6c8ebf;" vertex="1" parent="_InT-K8Ct3OmQfCsfsNm-1">
          <mxGeometry x="580" y="410" width="120" height="45" as="geometry" />
        </mxCell>
      </root>
    </mxGraphModel>
  </diagram>
</mxfile>
